<?xml version="1.0" encoding="utf-8"?>
<!-- Generator: Adobe Illustrator 26.5.0, SVG Export Plug-In . SVG Version: 6.00 Build 0)  -->
<svg version="1.1" id="Layer_1" xmlns="http://www.w3.org/2000/svg" xmlns:xlink="http://www.w3.org/1999/xlink" x="0px" y="0px"
	 viewBox="0 0 300 35.6" style="enable-background:new 0 0 300 35.6;" xml:space="preserve">
<style type="text/css">
	.st0{enable-background:new    ;}
</style>
<g class="st0">
	<path d="M19.18,1.34c0.91,1.08-0.13,2.56-1.17,3.12c-1.73,1.17-4.21,1.3-6.42,1.3c0.35,3.47,0,15.22-0.13,23.2
		c0.09,4.51-1.6,5.33-4.03,3.9C6.21,31.09,6.38,7.29,7.51,5.64c-1.99,0-3.95,0.13-5.25,2.04C3,9.71,0.7,9.15,0.36,8.02
		c-2.52-6.85,8.98-5.2,11.84-5.2c2.08,0,4.12-0.61,5.42-1.69C18.09,0.78,18.74,0.91,19.18,1.34z"/>
	<path d="M23.38,20.56c2.69,0,10.93-1.65,13.75-1.08c0.61,0.13,0.69,2.65,0.52,2.78c-4.42,0.35-10.93,1.73-13.79,0.65
		C23.38,22.33,22.86,21.29,23.38,20.56z"/>
	<path d="M56.51,11.36c-0.3,1.52-2.17,0.26-2.12-0.22c0.39-2.73-0.17-7.37-4.16-7.37c-4.03,0-6.03,6.29-5.77,9.76
		c0.04,1.6,4.42,2.47,5.51,2.86c2.08,0.78,4.64,3.08,5.38,5.94c0.74,2.73,0.69,7.03-0.69,9.37c-0.69,1.13-2.65,2.47-4.94,2.47
		c-6.72,0-6.11-4.55-6.16-8.24c0.13-0.17,0.39-0.48,0.78-0.48c0.43,0,1.04,0.35,1.21,0.82c0.26,0.82-0.48,5.07,1.99,5.07
		c1.08,0,2.91-1.04,3.51-1.95c1.69-2.47,2.08-8.63,0.17-10.1c-0.56-0.43-7.2-2.26-7.59-2.65c-1.52-1.6-2.69-3.21-2.56-5.81
		c0.26-4.16,2.69-9.54,7.59-9.67C53.22,1.17,57.42,6.5,56.51,11.36z"/>
	<path d="M72.6,34.56c-0.69-0.04-1.21-0.26-1.65-0.74c-2.52-2.91,0.74-15,0.61-18.73c0-1.21-0.09-4.73-1.99-4.73
		c-1.65,0-4.38,2.73-5.33,4.25c-0.22,0.95-0.35,13.53-0.35,15.7c0,0.74,0.22,3.86-1.47,3.86c-1.52,0-2.6-1.95-2.86-2.95
		c0-0.09,0.3-30.53,1.43-30.53c0.82-0.13,1.78,0.09,2.34,0.65c1.52,1.6,1.39,5.72,1.26,8.46c1.26-1.26,3.25-2.25,5.2-1.78
		c1.6,0.39,2.78,1.91,3.3,2.82c2.17,3.6,0.61,11.97-0.09,23.46C72.95,34.43,72.64,34.56,72.6,34.56z"/>
	<path d="M80.71,13.01c1,1.86,0.35,11.71,0.13,14.7c-0.04,1.13,0.26,4.08-1.6,4.08c-1.52,0-2.65-2.17-2.78-3.34
		c-0.13-1.47,0.17-16.44,1.43-17.17C78.93,10.93,80.23,12.14,80.71,13.01z M76.59,3.99c0.13-0.65,1.43-1.95,2.82-1.6
		c1.34,0,2.65,1.34,2.78,2.43c0.13,1.26-0.56,3.04-2.21,3.08C78.07,7.89,76.33,5.98,76.59,3.99z"/>
	<path d="M99.01,9.63c-0.04,0.91-0.43,7.55-0.26,8.2c0,0.04,0,0.04,0,0.09c0,0.13-0.22,0.35-0.39,0.35c-1.43,0-2.3-1.56-2.47-3.04
		c-0.35-3.04,0.13-6.98,0.26-10.19c-1.26,0.82-2.08,2.39-2.82,3.77v0.04c-1.69,3.3-2.99,7.42-3.73,11.97
		c-0.35,2.12-0.35,4.29-0.35,6.63c0,1.04,0.52,5.12-1.56,5.12c-1.3,0-2.65-1.43-2.99-2.21c-1.21-3.21-0.39-25.71,0.09-26.76
		c2.34-3.51,4.6,3.69,4.21,7.63c-0.04,0.61,0,1.21,0.04,1.82c0.56-1.65,3.21-10.88,7.16-10.88C99.62,2.17,99.18,7.2,99.01,9.63z"/>
	<path d="M114.58,20.9c0.22,0.48-0.22,3.38-0.26,4.25c-0.17,3.95-0.17,9.63-4.29,9.63c-2.12,0-4.03-1.99-4.81-3.34
		c-2.73-4.73-2.65-12.58-2.17-19.64c-0.43-0.26-0.65-0.35-1-0.26c-0.56,0.13-0.48,1.21-1.26,1.3c-1,0-1.13-1.21-0.87-1.99
		c0.39-1.08,1.17-1.65,2.17-1.65c0.3,0,0.65,0.04,1,0.17c0.26-1.17,0.13-8.98,1.91-8.98c1,0.04,1.78,0.39,2.34,1
		c1.82,1.99,0.87,6.76,0.87,9.76c0.3,0.09,0.65,0.13,1,0.13c1.39,0,2.95-0.65,3.3-2.08c0-1.69,1.52-1.13,1.91,0.17
		c0.69,2.86-1.95,4.81-4.6,4.81c-0.56,0-1.17-0.13-1.69-0.3c-0.35,4.73-0.82,9.93-0.13,14.74c0.17,1.3,0.39,2.65,1.04,3.56
		c2.17-0.22,2.78-2.65,3.17-5.2c0.13-1.04,0.22-2.12,0.74-6.59C113.23,19.73,114.27,20.51,114.58,20.9z"/>
	<path d="M141.16,11.14c-0.04,4.25-4.68,9.06-7.29,11.53c-0.17,0.17-0.26,0.95-0.09,1.13c1.04,1.39,2.39,3.04,3.82,4.08
		c0.22,0.13,0.91,0.09,1.04-0.09c1.47-1.47,2.39-3.38,3.56-4.94c0.91-1.17,2.17,0.13,1.99,0.65c-0.78,2.3-1.43,3.86-2.6,5.59
		c-0.13,0.17,0,0.82,0.17,0.91c1.39,0.61,1.82,0.26,3.3-0.35c0.22,0.22,0.52,2.69-1.08,3.64c-1.95,1.21-3.69,0.95-6.37-0.26
		c-3.73,2.17-6.85,2.86-9.15,2.43c-1.13-0.13-2.65-1.21-3.04-2.3c-0.48-1.47,2.25-6.03,3.6-7.59c0.09-0.13,0.04-0.87-0.09-1.08
		c-0.65-1.3-2.3-5.77-2.3-10.02c0-4.38,7.55-8.54,10.19-8.5C139.47,6.03,141.16,9.28,141.16,11.14z M133.83,31.27
		c0.17-0.09,0.09-0.48-0.09-0.61c-1.34-0.91-2.3-2.25-3.25-3.56c-0.09-0.17-0.56-0.13-0.69,0.04c-0.87,1.17-2.65,3.69-1.86,5.07
		C128.37,33.82,133.18,31.48,133.83,31.27z M138.9,11.8c0.04-0.39-0.09-1.52-0.35-2.08c-0.87-1.56-1.91-0.91-3.04,0
		c-2.86,2.43-3.82,7.11-3.3,11.14c0.04,0.39,0.74,0.43,0.87,0.3C134.35,19.86,138.82,13.36,138.9,11.8z"/>
	<path d="M155.73,33.65c-0.17-0.09-1.91-2.6-0.78-2.6c0.52,0,1.04,0.17,1.43,0.35c0.39-10.41,1.52-20.12,2.56-28.32
		c-0.56,0.09-1.08,0.48-1.78,0.48c-0.78,0-1.73-1-1.43-1.86c0.26-1.04,5.33-1.26,5.59-1.26c6.63,0,12.66,3.47,12.66,10.32
		c0,7.24-3.21,8.67-7.55,10.97c2.47,1.26,4.03,3.38,4.21,5.77c0.39,4.81-3.38,8.02-8.2,8.02C159.94,35.52,157.94,34.82,155.73,33.65
		z M161.15,23.42c-0.22,3.25-0.35,6.29-0.39,9.15c3.82,0,7.59-1.6,7.59-6.29C168.35,23.63,163.23,23.07,161.15,23.42z M171.73,11.23
		c0.56-5.81-3.64-7.76-8.67-8.24c-0.35,6.07-1.43,11.36-1.69,17.48C166.09,19.17,171.25,16.91,171.73,11.23z"/>
	<path d="M174.59,19.3c0.3-7.98,1.73-17.3,7.76-17.04c3.34,0.17,5.85,1.95,7.55,5.33c0.22-1.56,0.04-3.17,0.82-4.73
		c0.3-0.65,2.08,0.17,2.43,0.56c1.6,1.65,1.17,27.71,0.52,29.27c-1.3,1.08-3.51-0.69-3.95-2.12c-0.22-0.78-0.26-5.25-0.3-6.63
		c-0.04,1.47-3.95,8.93-6.63,8.93C177.02,32.87,174.46,24.37,174.59,19.3z M182.27,30.7c4.12,0,6.63-11.62,7.11-14.44
		c0.52-3.51-0.48-11.27-5.59-11.27c-3.56,0-4.51,8.98-4.51,12.75C179.27,19.9,179.45,30.7,182.27,30.7z"/>
	<path d="M212.54,17.17c-0.69,4.6-2.26,10.45-7.29,10.49h-0.04c-3.12,0.13-6.07-2.6-7.2-4.38c-3.47-5.51-2.12-21.16,5.46-21.73
		c3.3-0.26,6.89,1.95,8.2,4.12c0.69,1.17,1.08,3.04,0.26,4.34c-1.21,1.82-2.08-3.56-2.12-3.64c-0.78-1.56-3.69-2.56-5.33-1.73
		c-2.3,1-3.3,5.46-3.86,8.2c-0.82,4.16-1.04,11.88,3.95,11.88c3.69-0.13,5.03-5.25,6.37-8.33
		C211.36,15.96,212.54,16.57,212.54,17.17z M211.58,32.44c-0.04,0.17-0.22,0.35-0.43,0.3c-0.87-0.13-1.04-0.91-1.39-1.6
		c-0.35-0.22-0.74-0.39-1.17-0.39c-2.56,0-4.08,2.91-7.89,2.91c-0.52,0-1.95-0.65-2.47-1.73c-0.3-0.65-1.13-2.3,0.22-2.3
		c0.74,0.04,1.04,0.74,1.52,1.26c2.65-0.17,4.55-2.52,7.63-2.73C209.72,28.27,211.88,30.05,211.58,32.44z"/>
	<path d="M218.22,35.47c-3.82,0-3.64-6.03-3.64-8.85c0-6.33-0.04-16.7-0.04-23.5c0-4.81,4.03-1.86,4.64,0.09
		c0.39,1.56,0.26,13.49,0.35,14.7c0.95-0.69,3.64-3.73,4.86-3.82c0.82-0.04,1.73,0.74,1.73,1.47c0.09,1.21-5.81,5.9-5.98,6.03
		c1.52,3.04,5.98,9.5,6.94,12.32c0,0.13-1.08,0.35-1.56,0.35c-1.78,0-4.38-6.42-5.85-8.8C219.39,26.84,220.21,35.47,218.22,35.47z"
		/>
	<path d="M245.36,13.36c-0.56,4.77-2.43,9.71-6.63,9.71c-2.17,0-4.08-1.56-5.07-3.43c0.22,3.47-0.09,7.33-0.13,11.88
		c0.13,3.82-2.21,2.73-3.6,1.73c-1-1.56-0.91-4.51-0.82-7.33c0.26-4.94-1.13-21.64,1.21-25.93c2.95,0.04,3.47,2.73,3.56,5.46
		c1.39-1.91,3.51-4.77,6.29-4.77C245.32,0.69,245.88,9.58,245.36,13.36z M236.95,20.12c0.04,0,0.09,0,0.09,0c4.73,0,7.63-17,3.43-17
		h-0.04c-2.6,1.13-5.94,4.47-6.46,7.5c-0.09,0.35-0.26,3.73-0.13,4.34C233.96,16.09,235.6,20.03,236.95,20.12z"/>
	<path d="M247.53,19.3c0.3-7.98,1.73-17.3,7.76-17.04c3.34,0.17,5.85,1.95,7.55,5.33c0.22-1.56,0.04-3.17,0.82-4.73
		c0.3-0.65,2.08,0.17,2.43,0.56c1.6,1.65,1.17,27.71,0.52,29.27c-1.3,1.08-3.51-0.69-3.95-2.12c-0.22-0.78-0.26-5.25-0.3-6.63
		c-0.04,1.47-3.95,8.93-6.63,8.93C249.96,32.87,247.4,24.37,247.53,19.3z M255.21,30.7c4.12,0,6.63-11.62,7.11-14.44
		c0.52-3.51-0.48-11.27-5.59-11.27c-3.56,0-4.51,8.98-4.51,12.75C252.21,19.9,252.39,30.7,255.21,30.7z"/>
	<path d="M285.47,17.17c-0.69,4.6-2.26,10.45-7.29,10.49h-0.04c-3.12,0.13-6.07-2.6-7.2-4.38c-3.47-5.51-2.12-21.16,5.46-21.73
		c3.3-0.26,6.89,1.95,8.2,4.12c0.69,1.17,1.08,3.04,0.26,4.34c-1.21,1.82-2.08-3.56-2.12-3.64c-0.78-1.56-3.69-2.56-5.33-1.73
		c-2.3,1-3.3,5.46-3.86,8.2c-0.82,4.16-1.04,11.88,3.95,11.88c3.69-0.13,5.03-5.25,6.37-8.33C284.3,15.96,285.47,16.57,285.47,17.17
		z M284.52,32.44c-0.04,0.17-0.22,0.35-0.43,0.3c-0.87-0.13-1.04-0.91-1.39-1.6c-0.35-0.22-0.74-0.39-1.17-0.39
		c-2.56,0-4.08,2.91-7.89,2.91c-0.52,0-1.95-0.65-2.47-1.73c-0.3-0.65-1.13-2.3,0.22-2.3c0.74,0.04,1.04,0.74,1.52,1.26
		c2.65-0.17,4.55-2.52,7.63-2.73C282.65,28.27,284.82,30.05,284.52,32.44z"/>
	<path d="M291.15,35.47c-3.82,0-3.64-6.03-3.64-8.85c0-6.33-0.04-16.7-0.04-23.5c0-4.81,4.03-1.86,4.64,0.09
		c0.39,1.56,0.26,13.49,0.35,14.7c0.95-0.69,3.64-3.73,4.86-3.82c0.82-0.04,1.73,0.74,1.73,1.47c0.09,1.21-5.81,5.9-5.98,6.03
		c1.52,3.04,5.98,9.5,6.94,12.32c0,0.13-1.08,0.35-1.56,0.35c-1.78,0-4.38-6.42-5.85-8.8C292.32,26.84,293.15,35.47,291.15,35.47z"
		/>
</g>
</svg>
